<svg width="997" height="997" viewBox="0 0 997 997" fill="none" xmlns="http://www.w3.org/2000/svg">
<mask id="path-1-inside-1_546_175" fill="white">
<path d="M997 498.5C997 563.964 984.106 628.787 959.054 689.268C934.002 749.749 897.283 804.703 850.993 850.993C804.703 897.283 749.748 934.002 689.268 959.054C628.787 984.106 563.964 997 498.5 997C433.036 997 368.213 984.106 307.732 959.054C247.251 934.002 192.297 897.283 146.007 850.993C99.7172 804.703 62.998 749.748 37.946 689.268C12.8941 628.787 -5.72304e-06 563.964 0 498.5L498.5 498.5L997 498.5Z"/>
</mask>
<path d="M997 498.5C997 563.964 984.106 628.787 959.054 689.268C934.002 749.749 897.283 804.703 850.993 850.993C804.703 897.283 749.748 934.002 689.268 959.054C628.787 984.106 563.964 997 498.5 997C433.036 997 368.213 984.106 307.732 959.054C247.251 934.002 192.297 897.283 146.007 850.993C99.7172 804.703 62.998 749.748 37.946 689.268C12.8941 628.787 -5.72304e-06 563.964 0 498.5L498.5 498.5L997 498.5Z" fill="white" stroke="black" stroke-width="40" mask="url(#path-1-inside-1_546_175)"/>
<mask id="path-2-inside-2_546_175" fill="white">
<path d="M4.35803e-05 498.5C4.93033e-05 433.036 12.8941 368.213 37.9461 307.732C62.9981 247.251 99.7173 192.297 146.007 146.007C192.297 99.7172 247.252 62.998 307.732 37.946C368.213 12.894 433.036 -5.21648e-05 498.5 -4.35803e-05C563.964 -3.49957e-05 628.787 12.8941 689.268 37.946C749.749 62.998 804.703 99.7173 850.993 146.007C897.283 192.297 934.002 247.252 959.054 307.732C984.106 368.213 997 433.036 997 498.5L498.5 498.5L4.35803e-05 498.5Z"/>
</mask>
<path d="M4.35803e-05 498.5C4.93033e-05 433.036 12.8941 368.213 37.9461 307.732C62.9981 247.251 99.7173 192.297 146.007 146.007C192.297 99.7172 247.252 62.998 307.732 37.946C368.213 12.894 433.036 -5.21648e-05 498.5 -4.35803e-05C563.964 -3.49957e-05 628.787 12.8941 689.268 37.946C749.749 62.998 804.703 99.7173 850.993 146.007C897.283 192.297 934.002 247.252 959.054 307.732C984.106 368.213 997 433.036 997 498.5L498.5 498.5L4.35803e-05 498.5Z" fill="#FF0000" stroke="black" stroke-width="40" mask="url(#path-2-inside-2_546_175)"/>
<circle cx="499" cy="499" r="110" fill="black"/>
<circle cx="499" cy="498" r="80" fill="white"/>
</svg>
