<svg width="997" height="997" viewBox="0 0 997 997" fill="none" xmlns="http://www.w3.org/2000/svg">
<g clip-path="url(#clip0_677_1600)">
<mask id="mask0_677_1600" style="mask-type:luminance" maskUnits="userSpaceOnUse" x="0" y="498" width="997" height="499">
<path d="M997 498.5C997 563.964 984.106 628.787 959.054 689.268C934.002 749.749 897.283 804.703 850.993 850.993C804.703 897.283 749.748 934.002 689.268 959.054C628.787 984.106 563.964 997 498.5 997C433.036 997 368.213 984.106 307.732 959.054C247.251 934.002 192.297 897.283 146.007 850.993C99.7172 804.703 62.998 749.748 37.946 689.268C12.8941 628.787 -5.72304e-06 563.964 0 498.5H498.5H997Z" fill="white"/>
</mask>
<g mask="url(#mask0_677_1600)">
<path d="M997 498.5C997 563.964 984.106 628.787 959.054 689.268C934.002 749.749 897.283 804.703 850.993 850.993C804.703 897.283 749.748 934.002 689.268 959.054C628.787 984.106 563.964 997 498.5 997C433.036 997 368.213 984.106 307.732 959.054C247.251 934.002 192.297 897.283 146.007 850.993C99.7172 804.703 62.998 749.748 37.946 689.268C12.8941 628.787 -5.72304e-06 563.964 0 498.5H498.5H997Z" fill="white" stroke="black" stroke-width="40"/>
</g>
<mask id="mask1_677_1600" style="mask-type:luminance" maskUnits="userSpaceOnUse" x="0" y="0" width="997" height="499">
<path d="M0 498.5C5.723e-06 433.036 12.8941 368.213 37.9461 307.732C62.9981 247.251 99.7173 192.297 146.007 146.007C192.297 99.7173 247.252 62.998 307.732 37.946C368.213 12.894 433.036 -8.5845e-06 498.5 0C563.964 8.5846e-06 628.787 12.8941 689.268 37.946C749.749 62.998 804.703 99.7174 850.993 146.007C897.283 192.297 934.002 247.252 959.054 307.732C984.106 368.213 997 433.036 997 498.5H498.5H0Z" fill="white"/>
</mask>
<g mask="url(#mask1_677_1600)">
<path d="M0 498.5C5.723e-06 433.036 12.8941 368.213 37.9461 307.732C62.9981 247.251 99.7173 192.297 146.007 146.007C192.297 99.7173 247.252 62.998 307.732 37.946C368.213 12.894 433.036 -8.5845e-06 498.5 0C563.964 8.5846e-06 628.787 12.8941 689.268 37.946C749.749 62.998 804.703 99.7174 850.993 146.007C897.283 192.297 934.002 247.252 959.054 307.732C984.106 368.213 997 433.036 997 498.5H498.5H0Z" fill="#FF0000" stroke="black" stroke-width="40"/>
</g>
<path d="M499 609C559.751 609 609 559.751 609 499C609 438.249 559.751 389 499 389C438.249 389 389 438.249 389 499C389 559.751 438.249 609 499 609Z" fill="black"/>
<path d="M499 578C543.183 578 579 542.183 579 498C579 453.817 543.183 418 499 418C454.817 418 419 453.817 419 498C419 542.183 454.817 578 499 578Z" fill="white"/>
<path d="M693.663 50.8149C865.8 129.694 1021.47 316.812 985.5 576.499C950.603 725.885 869.388 837.683 767.764 906.61C834.276 798.776 874.181 660.145 873.199 511.334C871.919 317.143 801.304 149.831 693.663 50.8149Z" fill="#161616" fill-opacity="0.3"/>
</g>
<defs>
<clipPath id="clip0_677_1600">
<rect width="997" height="997" fill="white"/>
</clipPath>
</defs>
</svg>
